<svg width="1012" height="329" viewBox="0 0 1012 329" fill="none" xmlns="http://www.w3.org/2000/svg">
<g clip-path="url(#clip0_297_4934)">
<path d="M242.776 198.483C242.776 198.483 223.367 198.416 212.895 208.851C202.421 219.285 211.224 321.402 211.224 321.402C211.224 321.402 247.42 325.742 267.232 321.402C287.043 317.063 298.309 310.957 298.309 310.957C298.309 310.957 292.908 213.488 287.462 203.439C282.016 193.392 242.776 198.483 242.776 198.483Z" fill="#92B4EA"/>
<path d="M938.04 166.365C938.04 166.365 952.232 172.333 953.866 182.893C955.501 193.454 947.352 201.534 947.352 201.534C947.352 201.534 967.35 203.144 967.701 219C968.054 234.856 946.466 235.737 946.466 235.737L891.007 230.893C891.007 230.893 880.448 218.126 893.396 201.534C905.269 186.321 938.04 166.365 938.04 166.365Z" fill="black"/>
<path d="M911.157 214.456C911.157 214.456 884.822 216.788 874.933 229.503C865.044 242.218 876.831 319.599 877.537 320.71C878.243 321.82 896.272 326.142 928.197 324.209C952.691 322.727 966.03 320.601 966.03 320.601C967.09 318.886 960.298 228.517 952.527 220.891C944.757 213.265 930.429 212.124 911.157 214.456Z" fill="#92B4EA"/>
<path d="M570.593 181.075H439.451C436.818 181.075 434.684 178.94 434.684 176.307V80.3869C434.684 77.7539 436.818 75.6189 439.451 75.6189H570.593C573.226 75.6189 575.36 77.7539 575.36 80.3869V176.307C575.36 178.94 573.226 181.075 570.593 181.075Z" fill="#E2DFE5"/>
<path d="M545.821 132.667H535.548V160.863H545.821V132.667Z" fill="#A37B90"/>
<path d="M522.328 118.151H512.056V160.762H522.328V118.151Z" fill="#A37B90"/>
<path d="M498.837 105.888H488.563V160.762H498.837V105.888Z" fill="#A37B90"/>
<path d="M475.344 93.999H465.071V160.988H475.344V93.999Z" fill="#A37B90"/>
<path d="M853.229 214.523H630.19C626.258 214.523 623.069 211.335 623.069 207.402V82.1759C623.069 78.2439 626.258 75.0549 630.19 75.0549H853.229C857.161 75.0549 860.35 78.2439 860.35 82.1759V207.402C860.35 211.335 857.161 214.523 853.229 214.523Z" fill="#E2DFE5"/>
<path d="M656.838 144.876H646.165V174.171H656.838V144.876Z" fill="#92B4EA"/>
<path d="M754.469 144.876H743.795V174.171H754.469V144.876Z" fill="#92B4EA"/>
<path d="M681.246 129.795H670.572V174.066H681.246V129.795Z" fill="#92B4EA"/>
<path d="M705.653 117.054H694.979V174.066H705.653V117.054Z" fill="#92B4EA"/>
<path d="M730.062 104.702H719.388V174.302H730.062V104.702Z" fill="#92B4EA"/>
<path d="M838.095 144.79C838.095 161.208 824.787 174.516 808.368 174.516C791.949 174.516 778.643 161.208 778.643 144.79C778.643 136.971 781.663 129.857 786.614 124.553C789.497 121.441 793.054 118.942 797.039 117.317C798.986 116.504 801.041 115.892 803.172 115.523C804.857 115.217 806.59 115.063 808.368 115.063C821.23 115.063 832.177 123.235 836.316 134.656C837.466 137.814 838.095 141.233 838.095 144.79Z" fill="#F7B369"/>
<path d="M836.316 134.656L808.368 144.79L795.858 124.752L797.039 117.317C798.986 116.504 801.041 115.892 803.172 115.523C804.857 115.217 806.59 115.063 808.368 115.063C821.23 115.063 832.177 123.235 836.316 134.656Z" fill="#A37B90"/>
<path d="M808.368 144.79L786.614 124.553C790.907 119.923 796.672 116.658 803.172 115.523L808.368 144.79Z" fill="#92B4EA"/>
<path d="M303.262 83.9679C303.262 102.783 288.009 118.036 269.193 118.036C250.378 118.036 235.124 102.783 235.124 83.9679C235.124 65.1519 250.378 49.8989 269.193 49.8989C288.009 49.8989 303.262 65.1519 303.262 83.9679Z" fill="#DDD7E0"/>
<path d="M295.917 83.9679C295.917 98.7269 283.952 110.69 269.193 110.69C254.435 110.69 242.47 98.7269 242.47 83.9679C242.47 69.2089 254.435 57.2449 269.193 57.2449C283.952 57.2449 295.917 69.2089 295.917 83.9679Z" fill="#C8BCCE"/>
<path d="M268.151 86.7498C268.017 86.7498 267.883 86.7248 267.755 86.6738C267.429 86.5448 267.187 86.2668 267.104 85.9268L263.878 72.6378C263.738 72.0588 264.093 71.4768 264.671 71.3358C265.247 71.1948 265.832 71.5498 265.973 72.1288L268.839 83.9358L286.728 72.2408C287.226 71.9138 287.894 72.0558 288.219 72.5528C288.545 73.0518 288.405 73.7188 287.907 74.0448L268.741 86.5738C268.563 86.6898 268.358 86.7498 268.151 86.7498Z" fill="#5C69A5"/>
<path d="M563.059 207.566C563.059 207.566 588.545 217.035 612.538 218.5C633.31 219.768 661.451 210.034 661.451 210.034L678.122 246.166C678.122 246.166 623.952 289.711 590.382 271.419C547.099 247.835 563.059 207.566 563.059 207.566Z" fill="#68B6D8"/>
<path d="M617.378 221.468C617.085 225.17 617.013 230.905 618.631 232.563C618.934 232.874 619.273 232.998 619.688 232.955C620.063 232.916 620.299 232.77 620.452 232.479C621.354 230.769 619.32 225.445 617.378 221.468ZM619.534 234.265C618.837 234.265 618.207 233.994 617.698 233.473C614.909 230.611 616.155 220.299 616.307 219.132C616.343 218.853 616.556 218.628 616.833 218.576C617.116 218.522 617.391 218.658 617.524 218.905C618.124 220.011 623.334 229.803 621.604 233.086C621.247 233.764 620.631 234.166 619.823 234.25C619.726 234.26 619.629 234.265 619.534 234.265Z" fill="#F7B369"/>
<path d="M663.908 213.32C663.908 213.32 668.711 203.13 675.529 199.516C682.348 195.902 689.829 194.259 687.676 198.345C685.522 202.431 679.974 208.656 679.974 208.656L690.988 208.198C690.988 208.198 698.47 206.556 703.687 206.339C708.904 206.122 709.649 210.088 709.649 210.088C709.649 210.088 714.867 209.871 716.688 211.793C718.511 213.716 716.303 216.472 716.303 216.472C716.303 216.472 723.342 218.178 719.478 223.001C715.612 227.823 699.602 233.817 692.121 235.46C684.64 237.104 668.905 235.759 668.905 235.759C668.905 235.759 654.517 235.709 663.908 213.32Z" fill="#6E3F35"/>
<path d="M701.542 224.192C701.392 224.192 701.24 224.14 701.117 224.034L685.229 210.352C684.957 210.117 684.927 209.706 685.161 209.434C685.396 209.16 685.807 209.132 686.079 209.365L701.967 223.048C702.239 223.282 702.27 223.693 702.035 223.966C701.906 224.115 701.725 224.192 701.542 224.192Z" fill="black"/>
<path d="M665.14 222.221C664.79 222.221 664.502 221.943 664.489 221.593C664.477 221.233 664.758 220.932 665.116 220.919C670.896 220.715 674.904 219.22 677.03 216.475C679.267 213.588 678.575 210.3 678.567 210.268C678.49 209.916 678.712 209.568 679.063 209.491C679.416 209.413 679.762 209.635 679.839 209.986C679.874 210.146 680.665 213.908 678.06 217.271C675.685 220.337 671.346 222.001 665.163 222.22C665.155 222.22 665.147 222.221 665.14 222.221Z" fill="black"/>
<path d="M671.174 249.559L651.349 214.089C650.836 213.173 651.164 212.015 652.081 211.502L660.433 206.834C661.349 206.321 662.508 206.649 663.02 207.565L682.846 243.035C683.357 243.952 683.03 245.11 682.113 245.623L673.762 250.291C672.845 250.803 671.687 250.476 671.174 249.559Z" fill="#F7B369"/>
<path d="M729.044 205.948C729.044 205.948 731.587 206.584 732.193 207.534C732.799 208.485 732.634 212.259 732.634 212.259C732.634 212.259 758.613 214.766 784.846 244.424C811.387 274.429 814.814 292.38 806.041 305.463C794.451 322.745 754.564 318.079 754.564 318.079C754.564 318.079 744.951 319.491 710.724 318.968C679.102 318.484 661.464 318.079 661.464 318.079C661.464 318.079 606.996 331.206 611.336 295.142C617.091 247.31 674.481 216.626 685.576 212.259C695.592 208.316 704.747 208.215 704.747 208.215C704.747 208.215 705.246 206.374 705.793 206.057C708.717 204.358 729.044 205.948 729.044 205.948Z" fill="#A37B90"/>
<path d="M547.853 145.639C547.853 145.639 523.029 138.636 512.354 163.121C501.677 187.605 510.161 255.007 510.161 255.007L565.32 244.371L558.52 190.067L547.853 145.639Z" fill="black"/>
<path d="M536.118 203.317C536.118 203.317 503.326 211.938 498.058 228.48C492.791 245.022 515.661 314.513 522.81 317.39C529.957 320.267 590.742 317.179 590.742 317.179C590.742 317.179 594.875 268.737 593.982 262.829C593.09 256.921 589.52 233.284 582.942 222.856C576.364 212.429 558.804 204.375 551.48 203.822C544.156 203.269 536.118 203.317 536.118 203.317Z" fill="#68B6D8"/>
<path d="M1011.11 305.895H0V328.545H1011.11V305.895Z" fill="#EBE8EE"/>
<path d="M530.947 189.98L531.334 207.505C531.334 207.505 534.605 212.473 544.876 213.08C552.527 213.532 555.172 211.746 555.172 211.746L553.911 202.895L552.67 194.262L534.068 190.599L530.947 189.98Z" fill="#6E3F35"/>
<path d="M534.068 190.599C534.123 191.076 534.317 191.637 534.615 192.278C538.729 200.946 549.491 202.597 553.911 202.895L552.67 194.262L534.068 190.599Z" fill="black"/>
<path d="M555.695 154.231C555.695 154.231 565.378 176 562.022 188.288C558.666 200.575 547.479 198.718 540.777 196.392C534.075 194.064 530.945 189.984 530.945 189.984C530.945 189.984 524.714 192.143 520.498 186.363C516.281 180.583 518.81 173.896 522.366 172.345C525.923 170.793 530.181 173.34 530.181 173.34L526.814 167.017C526.814 167.017 540.586 134.682 555.695 154.231Z" fill="#6E3F35"/>
<path d="M530.181 173.34C530.181 173.34 539.563 175.263 546.115 164.834C552.669 154.407 552.083 150.115 552.083 150.115L558.549 160.919C558.549 160.919 560.023 153.445 557.047 148.669C554.07 143.893 550.962 144.872 550.962 144.872L530.247 149.981L524.746 166.557L530.181 173.34Z" fill="black"/>
<path d="M515.615 212.01C515.615 212.01 467.022 235.894 472.474 282.35C477.923 328.779 536.211 322.227 558.02 317.179C579.827 312.131 562.819 278.997 562.819 278.997C562.819 278.997 554.579 281.872 533.425 278.265C512.271 274.657 515.615 212.01 515.615 212.01Z" fill="#68B6D8"/>
<path d="M502.197 268.556C500.997 268.556 499.816 268.788 498.696 269.335C497.715 269.813 497.542 270.164 497.558 270.259C497.817 271.771 506.537 273.744 515.143 274.874C512.629 272.675 507.246 268.556 502.197 268.556ZM517.06 276.419C517.034 276.419 517.01 276.417 516.984 276.414C512.271 275.866 496.846 273.818 496.275 270.479C496.053 269.177 497.613 268.415 498.125 268.165C506.474 264.09 517.08 274.854 517.526 275.314C517.718 275.512 517.765 275.809 517.643 276.056C517.533 276.279 517.306 276.419 517.06 276.419Z" fill="#F7B369"/>
<path d="M558.021 161.611C557.969 161.611 557.918 161.605 557.866 161.593L555.849 161.103C555.499 161.019 555.284 160.667 555.369 160.317C555.454 159.967 555.811 159.754 556.155 159.838L558.173 160.328C558.522 160.413 558.737 160.765 558.652 161.114C558.58 161.412 558.313 161.611 558.021 161.611Z" fill="black"/>
<path d="M545.924 163.582C545.67 163.582 545.429 163.432 545.324 163.183C545.185 162.852 545.34 162.47 545.672 162.331L550.363 160.36C550.692 160.22 551.075 160.377 551.215 160.708C551.354 161.04 551.199 161.421 550.867 161.561L546.176 163.531C546.094 163.566 546.008 163.582 545.924 163.582Z" fill="black"/>
<path d="M555.649 180.552C555.487 180.552 555.325 180.492 555.199 180.371C554.939 180.122 554.931 179.71 555.18 179.45C558.215 176.286 554.423 170.522 554.384 170.465C554.185 170.166 554.265 169.762 554.563 169.562C554.86 169.363 555.265 169.44 555.466 169.74C555.647 170.011 559.879 176.432 556.119 180.352C555.991 180.485 555.82 180.552 555.649 180.552Z" fill="black"/>
<path d="M530.255 183.371C530.104 183.371 529.952 183.319 529.829 183.212L522.424 176.808C522.151 176.573 522.122 176.162 522.357 175.89C522.593 175.618 523.004 175.589 523.275 175.824L530.681 182.228C530.952 182.463 530.982 182.874 530.747 183.146C530.618 183.295 530.438 183.371 530.255 183.371Z" fill="black"/>
<path d="M522.344 183.658C522.098 183.658 521.862 183.518 521.753 183.28C521.603 182.954 521.745 182.567 522.07 182.417L527.446 179.936C527.77 179.785 528.16 179.927 528.31 180.254C528.46 180.581 528.317 180.967 527.991 181.118L522.616 183.598C522.528 183.639 522.435 183.658 522.344 183.658Z" fill="black"/>
<path d="M530.767 205.126C530.767 205.126 528.692 205.338 528.447 206.64C528.202 207.94 536.246 230.126 542.522 232.117C548.798 234.108 553.705 214.508 554.004 214.842C554.303 215.175 565.553 223.531 566.761 223.265C567.969 222.997 562.756 213.373 559.478 209.593C556.198 205.813 554.126 204.402 554.126 204.402C554.126 204.402 554.518 208.984 554.485 209.964C554.453 210.943 550.564 213.109 543.66 211.994C533.787 210.399 530.767 205.126 530.767 205.126Z" fill="#F7B369"/>
<path d="M547.037 173.027C546.706 173.027 546.423 172.775 546.391 172.438L545.962 167.983C545.94 167.764 546.032 167.548 546.205 167.411L548.751 165.392C549.029 165.168 549.442 165.214 549.665 165.498C549.889 165.779 549.842 166.188 549.56 166.412L547.291 168.211L547.686 172.313C547.721 172.671 547.458 172.989 547.101 173.024C547.079 173.026 547.059 173.027 547.037 173.027Z" fill="black"/>
<path d="M558.711 171.698C558.38 171.698 558.097 171.446 558.064 171.109L557.636 166.654C557.615 166.441 557.7 166.232 557.863 166.094L559.8 164.46C560.073 164.229 560.485 164.263 560.717 164.538C560.949 164.813 560.914 165.223 560.64 165.455L558.964 166.869L559.359 170.984C559.395 171.342 559.132 171.66 558.774 171.695C558.753 171.697 558.732 171.698 558.711 171.698Z" fill="black"/>
<path d="M592.614 269.551C592.591 269.551 592.566 269.549 592.542 269.547C592.185 269.507 591.927 269.186 591.966 268.828C595.178 239.552 582.18 230.427 582.048 230.339C581.75 230.138 581.67 229.733 581.87 229.436C582.071 229.137 582.474 229.058 582.771 229.257C583.336 229.634 596.566 238.833 593.261 268.971C593.224 269.304 592.941 269.551 592.614 269.551Z" fill="#F7B369"/>
<path d="M547.503 278.833C547.485 278.833 547.468 278.832 547.45 278.83L517.008 276.416C516.649 276.388 516.382 276.074 516.411 275.716C516.438 275.357 516.75 275.077 517.111 275.119L547.554 277.533C547.912 277.562 548.18 277.875 548.15 278.233C548.124 278.574 547.839 278.833 547.503 278.833Z" fill="#F7B369"/>
<path d="M546.666 184.977C546.84 185.898 547.342 187.256 548.794 187.712C550.24 188.166 551.42 187.296 552.073 186.616L546.666 184.977ZM549.619 189.146C549.235 189.146 548.829 189.088 548.403 188.954C545.249 187.964 545.271 184.221 545.273 184.062C545.276 183.857 545.375 183.667 545.54 183.546C545.704 183.426 545.918 183.391 546.112 183.449L553.373 185.649C553.568 185.708 553.725 185.855 553.795 186.046C553.865 186.237 553.843 186.451 553.733 186.622C553.658 186.74 552.093 189.146 549.619 189.146Z" fill="black"/>
<path d="M729.014 173.18C729.014 173.18 740.872 168.118 741.795 177.3C742.864 187.938 730.15 188.036 730.15 188.036L729.014 173.18Z" fill="#6E3F35"/>
<path d="M734.919 182.708C734.808 182.708 734.695 182.68 734.592 182.62C734.281 182.438 734.177 182.04 734.357 181.729L738.314 174.947C738.495 174.637 738.892 174.529 739.205 174.713C739.516 174.894 739.62 175.292 739.439 175.603L735.482 182.386C735.361 182.593 735.144 182.708 734.919 182.708Z" fill="black"/>
<path d="M771.29 242.483C771.29 242.483 768.63 258.78 781.826 258.271C795.023 257.763 795.728 238.928 795.728 238.928L771.29 242.483Z" fill="#6E3F35"/>
<path d="M786.701 223.516C786.701 223.516 800.894 197.986 803.643 199.279C806.392 200.572 769.596 256.026 767.948 255.234C766.301 254.443 786.701 223.516 786.701 223.516Z" fill="#465884"/>
<path d="M739.522 180.674C739.512 180.674 736.129 180.618 736.129 180.618C735.77 180.611 735.482 180.315 735.489 179.956C735.495 179.596 735.795 179.317 736.15 179.316L739.533 179.373C739.893 179.379 740.18 179.675 740.173 180.034C740.167 180.39 739.877 180.674 739.522 180.674Z" fill="black"/>
<path d="M707.636 198.473L707.536 210.924C707.536 210.924 712.344 213.512 718.352 213.614C726.464 213.753 729.201 208.94 729.201 208.94L729.141 194.343L707.636 198.473Z" fill="#6E3F35"/>
<path d="M707.636 198.454C707.636 198.454 711.523 208.533 720.732 207.157C728.156 206.048 730.278 195.521 730.278 195.521L707.636 198.454Z" fill="black"/>
<path d="M732.783 162.995C732.783 162.995 737.984 185.784 731.457 195.877C724.457 206.7 713.184 203.47 708.964 200.225C703.273 195.849 702.107 189.778 702.107 189.778C702.107 189.778 694.284 191.336 691.676 184.956C688.936 178.255 693.807 172.847 697.721 172.528C701.634 172.208 702.09 172.921 702.09 172.921L700.941 165.764C700.941 165.764 724.729 139.324 732.783 162.995Z" fill="#6E3F35"/>
<path d="M700.807 183.196C700.656 183.196 700.506 183.145 700.383 183.04L694.346 177.861C694.073 177.627 694.041 177.216 694.275 176.943C694.511 176.67 694.921 176.641 695.193 176.873L701.23 182.051C701.503 182.286 701.535 182.696 701.301 182.969C701.172 183.119 700.989 183.196 700.807 183.196Z" fill="black"/>
<path d="M695.231 184.15C695.033 184.15 694.838 184.061 694.71 183.89C694.494 183.603 694.552 183.195 694.839 182.979L698.402 180.299C698.69 180.082 699.099 180.142 699.314 180.428C699.53 180.715 699.473 181.124 699.186 181.339L695.622 184.019C695.505 184.107 695.367 184.15 695.231 184.15Z" fill="black"/>
<path d="M712.575 176.901C712.233 176.901 711.946 176.634 711.927 176.289L711.703 172.455C711.682 172.096 711.956 171.788 712.314 171.767C712.665 171.755 712.981 172.02 713.002 172.379L713.226 176.212C713.247 176.571 712.973 176.879 712.614 176.9C712.602 176.901 712.588 176.901 712.575 176.901Z" fill="black"/>
<path d="M727.251 176.097C726.909 176.097 726.622 175.83 726.603 175.484L726.378 171.65C726.356 171.291 726.631 170.983 726.989 170.962C727.323 170.956 727.656 171.214 727.677 171.574L727.901 175.408C727.923 175.767 727.648 176.075 727.29 176.096C727.277 176.096 727.265 176.097 727.251 176.097Z" fill="black"/>
<path d="M720.479 186.268C720.438 186.268 720.395 186.264 720.353 186.255C720 186.186 719.771 185.843 719.84 185.491C720.958 179.832 719.113 175.141 719.095 175.094C718.96 174.761 719.122 174.381 719.456 174.248C719.788 174.115 720.168 174.275 720.302 174.609C720.385 174.814 722.309 179.709 721.117 185.743C721.056 186.053 720.784 186.268 720.479 186.268Z" fill="black"/>
<path d="M729.184 167.808C729.059 167.808 728.931 167.772 728.819 167.696C727.664 166.912 725.742 166.966 725.098 167.054C724.75 167.1 724.414 166.853 724.366 166.496C724.317 166.14 724.567 165.812 724.924 165.764C725.036 165.748 727.75 165.398 729.55 166.619C729.848 166.82 729.925 167.225 729.724 167.522C729.598 167.708 729.393 167.808 729.184 167.808Z" fill="black"/>
<path d="M710.515 170.071C710.375 170.071 710.234 170.027 710.116 169.935C709.832 169.714 709.78 169.306 710 169.021C711.333 167.303 714.021 166.796 714.134 166.775C714.489 166.711 714.826 166.945 714.891 167.298C714.956 167.651 714.722 167.99 714.368 168.056C714.346 168.06 712.054 168.498 711.029 169.819C710.9 169.985 710.708 170.071 710.515 170.071Z" fill="black"/>
<path d="M700.284 172.959C700.284 172.959 702.743 179.987 703.654 179.7C704.564 179.413 703.032 168.33 700.384 167.883C697.736 167.436 700.284 172.959 700.284 172.959Z" fill="black"/>
<path d="M701.399 171.918C701.399 171.918 709.243 170.87 714.321 166.525C718.61 162.855 720.093 157.845 720.093 157.845C720.093 157.845 723.457 157.244 728.432 159.977C733.406 162.708 734.237 171.861 734.237 171.861C734.237 171.861 742.39 155.879 737.87 150.59C733.352 145.3 726.622 150.211 726.622 150.211C726.622 150.211 727.353 139.99 713.481 144.615C699.61 149.241 696.995 161.542 696.995 161.542C696.995 161.542 692.174 161.357 691.798 165.834C691.423 170.311 693.458 174.743 693.458 174.743C693.458 174.743 695.449 172.658 698.718 173.688L701.987 174.719L701.399 171.918Z" fill="black"/>
<path d="M729.044 205.948C729.044 205.948 726.591 208.751 720.382 209.487C714.172 210.223 708.244 205.702 708.244 205.702L704.92 213.435L715.401 218.563L731.89 215.616L731.194 208.165L729.044 205.948Z" fill="#A37B90"/>
<path d="M680.487 274.429C680.405 274.429 680.321 274.413 680.241 274.38C679.982 274.274 654.249 263.976 633.048 273.297C632.721 273.443 632.336 273.293 632.19 272.963C632.046 272.634 632.195 272.25 632.524 272.105C654.235 262.559 680.471 273.066 680.733 273.175C681.066 273.311 681.226 273.69 681.09 274.023C680.986 274.275 680.743 274.429 680.487 274.429Z" fill="#92B4EA"/>
<path d="M647.898 260.649C647.396 260.649 646.936 260.758 646.534 260.998C646.376 261.093 646.114 261.274 646.136 261.442C646.306 262.792 652.177 265.386 658.24 267.354C655.421 264.509 650.897 260.649 647.898 260.649ZM660.396 269.356C660.335 269.356 660.273 269.348 660.212 269.329C656.705 268.294 645.231 264.677 644.844 261.606C644.784 261.132 644.913 260.448 645.867 259.88C650.751 256.955 659.864 267.109 660.886 268.276C661.077 268.494 661.101 268.812 660.944 269.056C660.823 269.246 660.614 269.356 660.396 269.356Z" fill="#92B4EA"/>
<path d="M792.263 233.468C792.263 233.468 803.904 233.071 800.782 227.48C797.661 221.89 776.998 217.676 774.272 223.726C771.548 229.775 792.263 233.468 792.263 233.468Z" fill="#6E3F35"/>
<path d="M790.248 242.892C790.248 242.892 801.89 242.495 798.768 236.904C795.646 231.313 774.983 227.1 772.258 233.149C769.533 239.199 790.248 242.892 790.248 242.892Z" fill="#6E3F35"/>
<path d="M782.556 249.611C785.13 250.091 787.804 249.986 790.262 249.084C792.458 248.278 794.281 246.87 792.789 244.461C789.806 239.644 771.371 236.745 769.204 242.202C767.588 246.271 777.438 248.659 782.556 249.611Z" fill="#6E3F35"/>
<path d="M795.188 232.2C795.154 232.2 795.12 232.197 795.086 232.192L779.205 229.714C778.851 229.658 778.607 229.325 778.662 228.97C778.718 228.614 779.047 228.377 779.406 228.427L795.287 230.905C795.642 230.961 795.885 231.294 795.83 231.649C795.779 231.971 795.503 232.2 795.188 232.2Z" fill="black"/>
<path d="M791.806 241.906C791.772 241.906 791.738 241.903 791.704 241.898L775.823 239.42C775.469 239.364 775.226 239.031 775.28 238.676C775.337 238.32 775.663 238.083 776.024 238.133L791.905 240.611C792.26 240.667 792.503 241 792.448 241.355C792.397 241.677 792.121 241.906 791.806 241.906Z" fill="black"/>
<path d="M721.977 218.559C720.968 218.559 719.891 218.454 718.741 218.218C718.389 218.146 718.162 217.801 718.234 217.449C718.308 217.096 718.656 216.873 719.003 216.942C727.86 218.766 731.907 212.206 732.075 211.926C732.258 211.617 732.657 211.515 732.967 211.7C733.275 211.884 733.377 212.282 733.193 212.591C733.153 212.658 729.552 218.559 721.977 218.559Z" fill="#92B4EA"/>
<path d="M717.862 192.906C716.513 192.906 714.401 192.369 712.899 189.448C712.735 189.128 712.861 188.736 713.181 188.572C713.504 188.406 713.895 188.534 714.058 188.853C715.888 192.414 718.629 191.536 718.744 191.496C719.086 191.382 719.453 191.561 719.57 191.899C719.687 192.237 719.512 192.605 719.174 192.725C719.16 192.729 718.637 192.906 717.862 192.906Z" fill="black"/>
<path d="M565.289 284.426C565.289 284.426 585.278 281.186 592.769 280.397C601.013 279.529 605.587 284.102 608.39 287.197C613.155 292.46 613.251 302.967 612.584 304.771C611.571 307.512 606.551 301.9 606.551 301.9C606.551 301.9 607.041 304.091 604.677 306.061C602.313 308.03 599.786 307.623 599.786 307.623C599.786 307.623 600.179 311.82 598.029 312.074C595.88 312.328 586.77 314.452 585.87 311.878C584.971 309.304 591.721 306.06 591.721 306.06L590.322 301.609C590.322 301.609 586.552 310.562 578.287 310.656C570.023 310.751 565.692 301.64 565.692 301.64L565.289 284.426Z" fill="#6E3F35"/>
<path d="M606.552 302.552C606.519 302.552 606.485 302.549 606.451 302.544C606.097 302.489 605.853 302.156 605.907 301.801C606.688 296.744 601.551 292.566 601.499 292.525C601.219 292.301 601.173 291.892 601.397 291.61C601.62 291.331 602.03 291.283 602.312 291.508C602.548 291.696 608.091 296.191 607.194 302C607.145 302.321 606.867 302.552 606.552 302.552Z" fill="black"/>
<path d="M599.786 308.274C599.706 308.274 599.626 308.26 599.547 308.229C599.213 308.097 599.049 307.719 599.181 307.384C600.786 303.314 597.397 298.326 597.363 298.276C597.159 297.98 597.233 297.575 597.528 297.371C597.825 297.168 598.23 297.24 598.434 297.536C598.591 297.763 602.254 303.142 600.392 307.862C600.291 308.118 600.045 308.274 599.786 308.274Z" fill="black"/>
<path d="M556.044 317.275V276.642C556.044 275.592 556.896 274.74 557.945 274.74H567.513C568.563 274.74 569.414 275.592 569.414 276.642V317.275C569.414 318.326 568.563 319.177 567.513 319.177H557.945C556.896 319.177 556.044 318.326 556.044 317.275Z" fill="#F7B369"/>
<path d="M727.452 290.368L707.046 288.696C704.873 288.518 703.256 286.612 703.435 284.439L706.89 242.274C707.068 240.102 708.974 238.484 711.147 238.662L731.553 240.335C733.726 240.513 735.343 242.419 735.165 244.592L731.709 286.757C731.531 288.93 729.625 290.547 727.452 290.368Z" fill="white"/>
<path d="M730.556 290.623L710.149 288.95C707.977 288.772 706.359 286.866 706.537 284.693L709.993 242.529C710.172 240.355 712.077 238.738 714.25 238.917L734.656 240.589C736.829 240.768 738.446 242.673 738.269 244.847L734.813 287.011C734.634 289.184 732.729 290.801 730.556 290.623Z" fill="#465884"/>
<path d="M682.786 281.641C682.786 281.641 692.937 259.916 694.562 258.366C696.186 256.817 715.106 250.391 717.681 250.518C720.254 250.644 716.212 256.378 714.187 257.995C712.162 259.613 709.548 261.361 709.548 261.361C709.548 261.361 723.712 261.363 725.027 263.756C726.344 266.147 722.55 268.356 722.55 268.356C722.55 268.356 727.619 268.788 725.801 272.043C723.982 275.297 710.082 278.936 710.082 278.936C710.082 278.936 707.43 292.753 698.074 296.027C688.72 299.302 684.347 298.376 684.347 298.376L682.786 281.641Z" fill="#6E3F35"/>
<path d="M698.719 263.022C698.387 263.022 698.104 262.769 698.071 262.432C698.038 262.073 698.302 261.757 698.659 261.723L709.487 260.714C709.836 260.681 710.162 260.943 710.196 261.301C710.229 261.659 709.966 261.977 709.608 262.011L698.78 263.02C698.76 263.021 698.739 263.022 698.719 263.022Z" fill="black"/>
<path d="M704.81 270.241C704.466 270.241 704.179 269.972 704.16 269.624C704.142 269.266 704.417 268.959 704.776 268.939L720.24 268.124C720.586 268.123 720.906 268.381 720.925 268.74C720.943 269.099 720.668 269.405 720.309 269.425L704.845 270.24C704.833 270.24 704.821 270.241 704.81 270.241Z" fill="black"/>
<path d="M581.545 313.98H667.645L692.235 258.36H609.53C607.467 258.36 605.598 259.576 604.764 261.464L581.545 313.98Z" fill="white"/>
<path d="M589.024 313.98H675.124L697.07 264.341C698.314 261.524 696.253 258.36 693.175 258.36H613.615L589.024 313.98Z" fill="#6876AA"/>
<path d="M552.684 321.007H674.245C676.186 321.007 677.759 319.434 677.759 317.493C677.759 315.554 676.186 313.98 674.245 313.98H552.684C550.743 313.98 549.171 315.554 549.171 317.493C549.171 319.434 550.743 321.007 552.684 321.007Z" fill="#465884"/>
<path d="M635.919 286.17C635.919 290.209 639.193 293.482 643.231 293.482C647.271 293.482 650.544 290.209 650.544 286.17C650.544 282.131 647.271 278.857 643.231 278.857C639.193 278.857 635.919 282.131 635.919 286.17Z" fill="white"/>
<path d="M900.514 172.392C900.514 172.392 890.533 175.907 889.432 187.763C888.33 199.62 897.041 202.977 897.041 202.977L920.273 195.812L900.514 172.392Z" fill="black"/>
<path d="M798.99 259.878L798.384 256.054C798.384 256.054 783.714 244.887 774.688 241.201C770.891 239.651 765.569 240.943 770.057 245.971C772.479 248.684 773.688 251.91 773.688 251.91C773.688 251.91 766.439 249.62 761.466 246.324C758.281 244.213 753.626 235.729 750.896 237.567C746.552 240.493 751.544 248.774 751.544 248.774C751.544 248.774 749.288 238.283 745.001 242.378C740.73 246.458 752.396 267.062 757.951 271.981C763.507 276.901 792.816 282.631 792.816 282.631L798.99 259.878Z" fill="#B26756"/>
<path d="M768.104 256.403C768.082 256.403 768.061 256.401 768.039 256.399C761.216 255.729 755.017 249.947 754.756 249.701C754.497 249.456 754.485 249.048 754.729 248.789C754.975 248.53 755.384 248.518 755.642 248.762C755.703 248.819 761.786 254.487 768.166 255.114C768.521 255.149 768.78 255.465 768.745 255.82C768.712 256.154 768.432 256.403 768.104 256.403Z" fill="black"/>
<path d="M760.505 261.163C760.368 261.163 760.232 261.12 760.118 261.034L753.989 256.442C753.703 256.228 753.646 255.823 753.859 255.538C754.072 255.253 754.479 255.192 754.763 255.408L760.543 259.74L773.021 252.167C773.327 251.98 773.725 252.079 773.908 252.384C774.094 252.688 773.996 253.086 773.691 253.271L760.84 261.069C760.736 261.132 760.62 261.163 760.505 261.163Z" fill="black"/>
<path d="M785.223 260.921C785.158 260.921 785.093 260.912 785.028 260.891C777.691 258.577 773.064 253.365 772.871 253.145C772.636 252.876 772.663 252.469 772.931 252.233C773.199 251.999 773.605 252.024 773.842 252.293C773.887 252.345 778.437 257.458 785.417 259.66C785.757 259.767 785.945 260.13 785.838 260.47C785.752 260.745 785.497 260.921 785.223 260.921Z" fill="black"/>
<path d="M878.218 226.109C878.218 226.109 848.36 252.494 824.26 254.036C812.64 254.779 797.049 249.231 797.049 249.231L783.198 285.474C783.198 285.474 831.896 331.618 881.508 295.255C895.765 284.807 878.218 226.109 878.218 226.109Z" fill="#92B4EA"/>
<path d="M790.508 292.844L783.502 290.506C782.575 290.196 782.074 289.194 782.384 288.267L795.527 248.882C795.837 247.954 796.839 247.454 797.767 247.763L804.772 250.102C805.699 250.41 806.2 251.413 805.891 252.341L792.747 291.726C792.438 292.652 791.436 293.153 790.508 292.844Z" fill="#E6F4FF"/>
<path d="M878.281 272.485C877.977 272.485 877.706 272.269 877.647 271.959C874.114 253.074 884.251 238.789 884.354 238.647C884.564 238.357 884.968 238.296 885.255 238.502C885.544 238.711 885.608 239.114 885.4 239.403C885.301 239.541 875.488 253.398 878.917 271.721C878.982 272.071 878.751 272.409 878.401 272.475C878.361 272.481 878.321 272.485 878.281 272.485Z" fill="#E6F4FF"/>
<path d="M904.57 181.215C904.57 181.215 892.771 176.677 892.194 185.707C891.525 196.168 903.986 195.811 903.986 195.811L904.57 181.215Z" fill="#B26756"/>
<path d="M899.103 190.751C898.895 190.751 898.69 190.648 898.571 190.459L894.451 183.955C894.266 183.662 894.353 183.274 894.646 183.088C894.94 182.902 895.327 182.989 895.512 183.283L899.632 189.787C899.817 190.08 899.73 190.468 899.438 190.654C899.333 190.72 899.217 190.751 899.103 190.751Z" fill="black"/>
<path d="M894.518 188.922C894.187 188.922 893.909 188.663 893.892 188.328C893.873 187.981 894.139 187.686 894.485 187.667L897.798 187.491C898.097 187.459 898.439 187.738 898.458 188.085C898.477 188.431 898.211 188.727 897.864 188.745L894.552 188.921C894.541 188.922 894.529 188.922 894.518 188.922Z" fill="black"/>
<path d="M926.417 202.977L926.96 218.453C926.96 218.453 922.342 221.16 916.459 221.475C908.515 221.899 905.661 217.281 905.661 217.281L905.201 202.977H926.417Z" fill="#B26756"/>
<path d="M926.417 205.016C926.417 205.016 922.968 216.253 913.896 215.232C906.582 214.41 904.57 203.694 904.57 203.694L926.417 205.016Z" fill="black"/>
<path d="M900.514 172.392C900.514 172.392 896.23 194.906 902.985 204.563C910.23 214.918 920.347 210.905 924.365 207.576C929.785 203.085 931.525 197.541 931.525 197.541C931.525 197.541 939.246 198.788 941.574 192.444C944.021 185.781 939.054 180.656 935.209 180.483C931.363 180.309 930.941 181.024 930.941 181.024L931.812 173.971C931.812 173.971 907.562 148.913 900.514 172.392Z" fill="#B26756"/>
<path d="M932.543 191.036C932.374 191.036 932.205 190.968 932.081 190.833C931.847 190.579 931.862 190.182 932.117 189.946L937.848 184.658C938.101 184.423 938.5 184.438 938.735 184.693C938.97 184.948 938.954 185.345 938.699 185.581L932.969 190.869C932.849 190.98 932.695 191.036 932.543 191.036Z" fill="black"/>
<path d="M938.039 191.771C937.916 191.771 937.79 191.735 937.681 191.659L934.094 189.16C933.81 188.962 933.739 188.571 933.938 188.286C934.136 188.003 934.526 187.93 934.813 188.13L938.399 190.628C938.684 190.827 938.754 191.218 938.556 191.502C938.434 191.678 938.238 191.771 938.039 191.771Z" fill="black"/>
<path d="M912.717 195.731C912.52 195.731 912.326 195.64 912.204 195.467C909.404 191.531 911.519 185.737 911.61 185.492C911.73 185.168 912.091 185.003 912.417 185.124C912.742 185.245 912.907 185.606 912.787 185.931C912.767 185.985 910.816 191.35 913.228 194.74C913.429 195.022 913.362 195.414 913.08 195.615C912.97 195.694 912.842 195.731 912.717 195.731Z" fill="black"/>
<path d="M904.043 178.895C903.89 178.895 903.737 178.839 903.616 178.727C903.361 178.491 903.347 178.094 903.582 177.839C905.03 176.279 907.694 176.015 907.807 176.004C908.169 175.98 908.457 176.226 908.49 176.57C908.522 176.916 908.27 177.222 907.924 177.255C907.901 177.257 905.622 177.488 904.504 178.694C904.38 178.827 904.212 178.895 904.043 178.895Z" fill="black"/>
<path d="M922.614 178.41C922.447 178.41 922.28 178.344 922.157 178.212C921.217 177.214 919.362 176.854 918.727 176.801C918.382 176.771 918.125 176.467 918.154 176.122C918.185 175.775 918.506 175.523 918.834 175.549C918.946 175.559 921.613 175.802 923.071 177.352C923.31 177.604 923.297 178.002 923.045 178.24C922.924 178.354 922.769 178.41 922.614 178.41Z" fill="black"/>
<path d="M915.296 200.643C915.813 200.861 916.442 201.006 917.021 200.826C917.514 200.671 917.932 200.285 918.269 199.672L915.296 200.643ZM916.474 202.162C914.869 202.162 913.452 201.021 913.382 200.963C913.204 200.818 913.12 200.587 913.162 200.361C913.204 200.136 913.366 199.951 913.584 199.88L919.151 198.063C919.374 197.992 919.616 198.046 919.784 198.208C919.951 198.371 920.015 198.612 919.949 198.835C919.439 200.584 918.578 201.658 917.39 202.026C917.083 202.121 916.775 202.162 916.474 202.162Z" fill="black"/>
<path d="M911.202 223.183C911.202 223.183 908.215 249.231 908.215 267.869C908.215 282.996 909.448 313.616 909.448 313.616H918.126C918.126 313.616 916.08 273.336 916.08 263.486C916.08 252.719 918.172 223.183 918.172 223.183C918.172 223.183 915.575 220.318 911.202 223.183Z" fill="#B8D5FF"/>
<path d="M905.574 215.045C905.574 215.045 900.123 233.341 901.958 232.983C903.792 232.625 914.717 222.816 914.717 222.816C914.717 222.816 924.353 231.796 926.96 231.863C929.567 231.931 926.96 213.378 926.96 213.378C926.96 213.378 922.902 219.623 915.272 220.072C906.841 220.567 905.574 215.045 905.574 215.045Z" fill="#E6F4FF"/>
<path d="M899.476 180.487C899.476 180.487 902.636 175.12 905.201 171.32L907.766 167.521C907.766 167.521 910.498 176.275 916.647 179.744C922.797 183.213 929.733 182.512 929.733 182.512V187.894C929.733 187.894 931.39 180.799 932.542 180.63C933.695 180.461 935.44 180.162 937.467 181.097C939.51 182.04 939.972 183.037 939.972 183.037C939.972 183.037 942.064 170.164 940.771 167.521C939.479 164.879 927.074 154.432 909.748 155.629C892.114 156.848 899.476 180.487 899.476 180.487Z" fill="black"/>
<path d="M906.461 186.496C906.101 186.488 905.825 186.2 905.833 185.854L905.91 182.396L904.175 180.982C903.905 180.764 903.865 180.368 904.084 180.099C904.304 179.831 904.701 179.79 904.968 180.009L906.941 181.616C907.092 181.738 907.177 181.923 907.173 182.117L907.089 185.882C907.081 186.224 906.802 186.496 906.461 186.496Z" fill="black"/>
<path d="M918.97 186.628C918.609 186.62 918.334 186.333 918.342 185.986L918.42 182.488L916.753 180.805C916.509 180.558 916.511 180.161 916.758 179.917C917.003 179.672 917.4 179.674 917.646 179.921L919.5 181.794C919.62 181.915 919.686 182.08 919.682 182.25L919.598 186.014C919.59 186.356 919.311 186.628 918.97 186.628Z" fill="black"/>
<path d="M929.293 162.351C929.293 162.351 927.835 145.884 939.355 145.664C950.876 145.443 946.554 167.246 939.355 169.008C932.156 170.77 929.293 162.351 929.293 162.351Z" fill="black"/>
<path d="M839.9 253.726C840.058 259.115 840.872 266.294 842.72 267.157C842.843 267.216 843.221 267.391 843.983 266.753C846.831 264.369 842.72 257.526 839.9 253.726ZM843.007 268.514C842.679 268.514 842.398 268.433 842.173 268.327C838.749 266.727 838.58 254.289 838.581 251.813C838.581 251.54 838.752 251.297 839.008 251.205C839.261 251.113 839.55 251.191 839.724 251.4C840.755 252.646 849.657 263.687 844.812 267.743C844.117 268.325 843.506 268.514 843.007 268.514Z" fill="#E6F4FF"/>
<path d="M396.454 193.442C396.454 193.442 385.32 209.804 370.54 209.58C361.109 209.438 353.963 189.122 353.963 189.122L368.235 174.892L396.454 193.442Z" fill="#6E3F35"/>
<path d="M357.703 169.03C357.703 169.03 375.902 167.593 372.579 173.198C370.231 177.157 363.401 176.137 363.401 176.137C363.401 176.137 365.3 203.112 361.33 204.763C353.697 207.935 349.555 181.647 357.703 169.03Z" fill="#6E3F35"/>
<path d="M344.646 188.162L374.891 212.042C374.891 212.042 361.299 244.172 325.116 253.333C288.934 262.494 265.871 244.256 265.871 244.256L276.377 198.09C276.377 198.09 294.978 202.059 309.362 200.5C327.888 198.493 344.646 188.162 344.646 188.162Z" fill="#92B4EA"/>
<path d="M309.695 204.682C309.112 209.92 308.9 216.739 310.422 218.039C310.568 218.164 310.772 218.274 311.166 218.152C311.566 218.027 311.847 217.763 312.049 217.32C313.162 214.878 311.196 208.598 309.695 204.682ZM310.851 219.468C310.39 219.468 309.967 219.311 309.602 218.999C306.73 216.545 308.533 203.6 308.749 202.131C308.79 201.853 309.01 201.635 309.289 201.597C309.564 201.566 309.838 201.711 309.951 201.969C310.161 202.447 315.071 213.731 313.198 217.844C312.846 218.615 312.289 219.125 311.542 219.357C311.305 219.432 311.074 219.468 310.851 219.468Z" fill="#A37B90"/>
<path d="M237.58 191.18L237.692 204.015C237.692 204.015 242.59 208.062 248.784 208.063C257.148 208.064 259.988 201.595 259.988 201.595L259.673 186.551L237.58 191.18Z" fill="#6E3F35"/>
<path d="M237.58 190.847C237.58 190.847 243.568 203.173 253.036 201.595C260.668 200.323 259.665 187.608 259.665 187.608L237.58 190.847Z" fill="black"/>
<path d="M263.487 157.354C263.487 157.354 268.08 179.185 261.135 189.788C254.191 200.391 244.886 197.47 240.684 194.35C235.017 190.142 233.77 184.193 233.77 184.193C233.77 184.193 226.104 185.854 223.434 179.625C220.629 173.081 225.33 167.684 229.172 167.306C233.014 166.927 233.474 167.62 233.474 167.62L232.227 160.603C232.227 160.603 255.177 134.215 263.487 157.354Z" fill="#6E3F35"/>
<path d="M259.954 167.681C259.954 167.681 271.528 162.508 272.588 171.52C273.815 181.961 261.316 182.268 261.316 182.268L259.954 167.681Z" fill="#6E3F35"/>
<path d="M265.906 176.927C265.804 176.927 265.701 176.901 265.605 176.848C265.309 176.682 265.203 176.306 265.37 176.01L269.148 169.276C269.314 168.979 269.689 168.875 269.986 169.04C270.283 169.207 270.389 169.582 270.222 169.878L266.444 176.612C266.331 176.813 266.122 176.927 265.906 176.927Z" fill="black"/>
<path d="M232.37 177.719C232.232 177.719 232.092 177.673 231.978 177.578L225.957 172.586C225.695 172.369 225.658 171.981 225.875 171.719C226.092 171.458 226.48 171.421 226.743 171.638L232.764 176.629C233.025 176.847 233.062 177.235 232.845 177.497C232.723 177.644 232.547 177.719 232.37 177.719Z" fill="black"/>
<path d="M226.905 178.749C226.721 178.749 226.54 178.667 226.418 178.512C226.209 178.243 226.257 177.856 226.526 177.647L229.985 174.954C230.254 174.745 230.641 174.793 230.85 175.061C231.059 175.33 231.011 175.716 230.742 175.925L227.283 178.619C227.17 178.707 227.037 178.749 226.905 178.749Z" fill="black"/>
<path d="M270.398 174.851H267.071C266.731 174.851 266.456 174.576 266.456 174.235C266.456 173.895 266.731 173.62 267.071 173.62H270.398C270.739 173.62 271.014 173.895 271.014 174.235C271.014 174.576 270.739 174.851 270.398 174.851Z" fill="black"/>
<path d="M244.906 172.046C244.596 172.046 244.328 171.812 244.295 171.496L243.896 167.741C243.86 167.402 244.105 167.099 244.444 167.063C244.776 167.027 245.085 167.272 245.121 167.611L245.52 171.366C245.556 171.704 245.311 172.007 244.972 172.043C244.95 172.045 244.928 172.046 244.906 172.046Z" fill="black"/>
<path d="M258.884 171.163C258.574 171.163 258.306 170.928 258.273 170.612L257.875 166.856C257.838 166.518 258.083 166.215 258.422 166.179C258.756 166.147 259.064 166.388 259.099 166.727L259.497 170.482C259.534 170.82 259.289 171.124 258.95 171.159C258.928 171.162 258.906 171.163 258.884 171.163Z" fill="black"/>
<path d="M253.154 180.729C253.124 180.729 253.093 180.728 253.062 180.723C252.726 180.673 252.494 180.36 252.543 180.023C253.375 174.424 251.346 169.878 251.325 169.833C251.184 169.523 251.32 169.158 251.63 169.017C251.94 168.876 252.304 169.012 252.445 169.321C252.536 169.519 254.65 174.23 253.762 180.204C253.717 180.51 253.454 180.729 253.154 180.729Z" fill="black"/>
<path d="M259.98 163.733C259.884 163.733 259.786 163.71 259.696 163.663C258.229 162.898 255.993 163.449 255.97 163.455C255.643 163.541 255.306 163.338 255.222 163.009C255.139 162.679 255.337 162.345 255.666 162.261C255.777 162.233 258.377 161.586 260.265 162.571C260.566 162.728 260.683 163.1 260.526 163.402C260.417 163.612 260.202 163.732 259.98 163.733Z" fill="black"/>
<path d="M241.843 165.507C241.687 165.507 241.532 165.449 241.413 165.332C241.169 165.095 241.165 164.705 241.402 164.461C242.89 162.938 245.563 162.744 245.676 162.737C246.019 162.715 246.308 162.97 246.332 163.31C246.354 163.648 246.098 163.942 245.759 163.965C245.736 163.967 243.439 164.139 242.283 165.322C242.163 165.445 242.003 165.507 241.843 165.507Z" fill="black"/>
<path d="M236.901 169.577C236.901 169.577 242.476 165.806 242.142 160.085C241.809 154.365 240.55 152.905 240.55 152.905C240.55 152.905 246.286 155.954 253.417 153.804C261.486 151.372 265.934 140.284 261.532 137.26C256.627 133.889 244.708 138.634 244.708 138.634C244.708 138.634 231.93 142.895 223.783 152.813C215.636 162.732 225.052 169.467 225.052 169.467C225.052 169.467 227.837 164.892 236.901 169.577Z" fill="black"/>
<path d="M259.284 144.304C259.284 144.304 264.649 149.207 265.907 155.183C267.165 161.159 265.907 166.22 265.907 166.22L264.699 166.203C264.699 166.203 261.807 151.712 257.131 150.383C252.455 149.054 259.284 144.304 259.284 144.304Z" fill="black"/>
<path d="M254.304 208.076C255.749 208.715 257.893 210.007 261.091 211.992C263.795 213.67 267.786 216.147 269.04 216.357C268.765 214.746 264.431 208.395 260.113 202.788C259.338 204.208 257.54 206.816 254.304 208.076ZM238.007 205.115C235.752 212.389 234.193 220.4 235.504 221.274C236.27 221.789 239.4 220.197 249.949 209.735C250.316 209.371 250.639 209.051 250.915 208.78C250.222 208.813 249.488 208.786 248.706 208.688C242.529 207.922 239.343 206.11 238.007 205.115ZM235.676 222.567C235.339 222.567 235.048 222.488 234.804 222.325C232.016 220.466 235.85 207.692 237.091 203.822C237.16 203.606 237.339 203.444 237.561 203.397C237.781 203.348 238.01 203.426 238.16 203.592C238.197 203.631 240.867 206.443 248.861 207.437C256.667 208.397 259.29 201.663 259.397 201.375C259.478 201.161 259.667 201.007 259.893 200.972C260.114 200.936 260.345 201.026 260.486 201.208C263.672 205.293 271 215.011 270.234 217.004C270.11 217.327 269.84 217.548 269.493 217.608C268.202 217.847 265.204 216.03 260.426 213.064C257.709 211.379 253.639 208.852 252.682 208.852C252.378 209.104 251.691 209.786 250.838 210.632C243.471 217.938 238.248 222.567 235.676 222.567Z" fill="#A37B90"/>
<path d="M283.776 282.445C283.776 282.445 294.701 275.371 301.087 274.936C304.24 274.721 315.354 276.323 315.461 279.184C315.567 282.043 303.749 284.211 303.749 284.211C303.749 284.211 331 283.257 334.388 286.587C338.465 290.594 330.375 291.339 330.375 291.339C330.375 291.339 338.03 294.352 335.879 296.59C333.728 298.827 328.082 299.989 328.082 299.989C328.082 299.989 337.226 301.47 330.615 305.97C324.004 310.471 280.915 317.033 272.723 302.811C268.677 295.787 283.776 282.445 283.776 282.445Z" fill="#6E3F35"/>
<path d="M309.749 292.931C309.422 292.931 309.15 292.674 309.134 292.344C309.118 292.004 309.381 291.716 309.72 291.699L330.345 290.724C330.705 290.727 330.973 290.97 330.989 291.31C331.005 291.649 330.743 291.938 330.403 291.954L309.779 292.93C309.769 292.93 309.759 292.931 309.749 292.931Z" fill="black"/>
<path d="M311.034 301.549C310.709 301.549 310.438 301.295 310.42 300.967C310.401 300.627 310.661 300.337 311 300.317L328.047 299.374C328.398 299.367 328.678 299.615 328.696 299.955C328.715 300.295 328.455 300.585 328.116 300.604L311.069 301.548C311.057 301.548 311.045 301.549 311.034 301.549Z" fill="black"/>
<path d="M303.749 284.827C303.711 284.827 303.672 284.823 303.633 284.816L297.714 283.696C297.38 283.633 297.161 283.311 297.224 282.977C297.287 282.643 297.599 282.425 297.944 282.485L303.863 283.605C304.197 283.669 304.417 283.991 304.353 284.325C304.297 284.621 304.039 284.827 303.749 284.827Z" fill="black"/>
<path d="M218.122 204.953C218.122 204.953 180.067 228.37 183.346 277.47C186.008 317.315 224.98 325.547 246.334 326.044C267.688 326.541 289.893 316.565 289.893 316.565L282.669 279.256C282.669 279.256 250.604 274.327 231.904 265.984C213.205 257.642 218.122 204.953 218.122 204.953Z" fill="#92B4EA"/>
<path d="M215.471 270.065C214.238 270.065 213.322 270.316 212.9 270.911C212.356 271.681 212.21 272.284 212.469 272.705C213.716 274.736 222.334 274.441 228.736 273.683C224.347 271.868 218.774 270.065 215.471 270.065ZM220.065 275.519C216.123 275.519 212.419 275.035 211.394 273.366C210.846 272.475 211.006 271.403 211.87 270.183C214.775 266.076 229.653 272.668 231.34 273.434C231.595 273.55 231.744 273.819 231.705 274.097C231.666 274.374 231.449 274.592 231.172 274.633C230.186 274.779 224.943 275.519 220.065 275.519Z" fill="#A37B90"/>
<path d="M280.722 320.673L269.563 278.553C269.292 277.527 269.902 276.477 270.928 276.205L279.548 273.921C280.573 273.649 281.625 274.261 281.896 275.285L293.054 317.406C293.326 318.431 292.715 319.482 291.69 319.754L283.069 322.037C282.044 322.309 280.993 321.698 280.722 320.673Z" fill="#A37B90"/>
<path d="M366.851 226.575L339.25 192.858C338.579 192.038 338.699 190.828 339.52 190.156L346.42 184.507C347.241 183.835 348.451 183.957 349.122 184.777L376.723 218.494C377.395 219.314 377.274 220.524 376.454 221.196L369.553 226.845C368.732 227.517 367.522 227.396 366.851 226.575Z" fill="#A37B90"/>
<path d="M263.449 276.745C263.407 276.744 231.039 274.639 231.039 274.639C230.691 274.616 230.427 274.315 230.45 273.968C230.473 273.62 230.767 273.363 231.121 273.379L263.489 275.484C263.837 275.507 264.101 275.808 264.078 276.155C264.056 276.489 263.779 276.745 263.449 276.745Z" fill="#A37B90"/>
<path d="M228.233 153.403C228.233 153.403 233.539 135.28 247.264 133.325C260.989 131.37 253.365 146.235 253.365 146.235L228.233 153.403Z" fill="black"/>
<path d="M367.824 227.482L401.137 223.491C403.05 223.262 404.506 221.665 404.56 219.739L406.648 144.288C406.713 141.916 404.657 140.04 402.301 140.322L368.988 144.313C367.075 144.543 365.618 146.139 365.565 148.065L363.477 223.517C363.411 225.889 365.468 227.765 367.824 227.482Z" fill="#ECE8EF"/>
<path d="M362.163 195.182C362.028 195.182 361.893 195.141 361.776 195.056C361.482 194.842 361.418 194.431 361.632 194.138C366.391 187.618 362.958 178.68 362.923 178.59C362.79 178.252 362.956 177.871 363.293 177.738C363.633 177.606 364.014 177.771 364.146 178.109C364.3 178.502 367.874 187.815 362.694 194.912C362.565 195.088 362.365 195.182 362.163 195.182Z" fill="black"/>
<path d="M371.231 157.878C370.904 157.878 370.62 157.633 370.58 157.299C370.537 156.939 370.794 156.612 371.154 156.569L398.238 153.324C398.589 153.272 398.925 153.537 398.968 153.898C399.012 154.258 398.754 154.585 398.394 154.628L371.311 157.874C371.284 157.877 371.258 157.878 371.231 157.878Z" fill="#B1A5B7"/>
<path d="M371.186 164.896C370.858 164.896 370.574 164.651 370.534 164.317C370.491 163.957 370.748 163.629 371.108 163.586L398.192 160.341C398.543 160.293 398.879 160.554 398.923 160.916C398.966 161.276 398.709 161.603 398.349 161.646L371.265 164.891C371.238 164.895 371.212 164.896 371.186 164.896Z" fill="#B1A5B7"/>
<path d="M371.125 171.916C370.797 171.916 370.513 171.67 370.473 171.336C370.43 170.976 370.687 170.649 371.047 170.606L398.131 167.36C398.484 167.315 398.818 167.573 398.862 167.935C398.905 168.295 398.648 168.622 398.288 168.665L371.204 171.911C371.177 171.914 371.151 171.916 371.125 171.916Z" fill="#B1A5B7"/>
<path d="M370.643 178.865C370.315 178.865 370.031 178.62 369.991 178.286C369.948 177.926 370.205 177.599 370.565 177.556L397.649 174.31C397.999 174.264 398.336 174.523 398.38 174.884C398.423 175.245 398.166 175.572 397.806 175.615L370.722 178.86C370.695 178.864 370.669 178.865 370.643 178.865Z" fill="#B1A5B7"/>
<path d="M370.586 186.294C370.258 186.294 369.975 186.049 369.935 185.715C369.891 185.354 370.148 185.027 370.509 184.984L397.592 181.739C397.947 181.691 398.279 181.952 398.323 182.313C398.366 182.674 398.109 183.001 397.749 183.044L370.665 186.289C370.639 186.292 370.612 186.294 370.586 186.294Z" fill="#B1A5B7"/>
<path d="M357.703 169.03C357.703 169.03 372.815 165.435 372.579 173.198C372.443 177.658 358.994 178.725 358.994 178.725L357.703 169.03Z" fill="#6E3F35"/>
<path d="M249.253 185.174C249.928 186.021 250.92 186.965 251.902 186.992C252.909 187.012 253.791 186.26 254.337 185.628L249.253 185.174ZM251.958 188.225C251.928 188.225 251.898 188.224 251.868 188.224C249.429 188.156 247.548 184.887 247.469 184.748C247.356 184.549 247.363 184.303 247.487 184.111C247.611 183.919 247.834 183.809 248.06 183.831L255.531 184.498C255.741 184.517 255.926 184.641 256.023 184.827C256.12 185.014 256.114 185.237 256.01 185.418C255.943 185.535 254.366 188.225 251.958 188.225Z" fill="black"/>
<path d="M908.53 335.249L863.733 339.615C862.104 339.774 860.304 338.505 859.712 336.78L835.789 267.063C835.197 265.339 836.038 263.812 837.667 263.652L882.464 259.287C884.093 259.128 885.893 260.397 886.484 262.123L910.408 331.839C911 333.563 910.159 335.091 908.53 335.249Z" fill="#304068"/>
<path d="M903.298 335.746L858.501 340.111C856.872 340.271 855.072 339.001 854.48 337.276L830.557 267.56C829.965 265.835 830.806 264.308 832.435 264.149L877.231 259.783C878.86 259.625 880.661 260.895 881.253 262.619L905.176 332.336C905.768 334.061 904.927 335.587 903.298 335.746Z" fill="#40507F"/>
<path d="M925.314 296.576C924.567 293.523 922.435 291.012 919.527 289.819C914.784 287.873 907.566 285.045 905.6 285.012C902.598 284.961 894.857 286.746 894.857 286.746L895.58 291.106C895.58 291.106 869.044 291.911 868.646 297.102C868.376 300.637 879.832 300.933 879.832 300.933C879.832 300.933 867.912 301.591 867.969 305.638C868.024 309.685 882.618 310.422 882.618 310.422C882.618 310.422 870.377 311.891 874.618 315.763C878.86 319.635 917.104 326.697 923.685 317.616C928.013 311.645 926.712 302.284 925.314 296.576Z" fill="#B26756"/>
<path d="M894.912 291.053C894.596 291.053 894.323 290.813 894.289 290.492C894.253 290.147 894.503 289.838 894.847 289.802L901.866 289.059C902.201 289.028 902.52 289.271 902.557 289.616C902.593 289.961 902.343 290.271 901.999 290.307L894.979 291.05C894.957 291.052 894.935 291.053 894.912 291.053Z" fill="black"/>
<path d="M877.891 301.339C877.556 301.339 877.278 301.075 877.264 300.738C877.249 300.392 877.519 300.1 877.864 300.085L895.672 299.343C896.02 299.353 896.311 299.598 896.325 299.943C896.34 300.29 896.07 300.582 895.725 300.597L877.917 301.339H877.891Z" fill="black"/>
<path d="M880.413 311.333C880.081 311.333 879.803 311.071 879.787 310.735C879.771 310.39 880.038 310.096 880.385 310.079L898.512 309.226C898.832 309.228 899.151 309.477 899.168 309.823C899.184 310.169 898.917 310.463 898.57 310.479L880.443 311.333H880.413Z" fill="black"/>
<path d="M948.626 217.91C948.626 217.91 1000.23 241.736 996.624 288.883C992.971 336.698 928.197 324.209 928.197 324.209L931.309 285.166L948.626 217.91Z" fill="#92B4EA"/>
<path d="M934.896 282.768C934.616 282.768 934.359 282.586 934.276 282.305C934.176 281.963 934.371 281.604 934.713 281.503C935.77 281.19 960.678 273.854 968.366 273.825C968.724 273.825 969.013 274.112 969.014 274.469C969.015 274.825 968.728 275.115 968.37 275.116C960.865 275.144 935.336 282.665 935.078 282.741C935.018 282.759 934.956 282.768 934.896 282.768Z" fill="#E6F4FF"/>
<path d="M959.735 267.604C959.54 267.604 959.335 267.64 959.118 267.711C956.77 268.481 953.917 272.993 952.253 276.09C956.33 273.497 960.901 269.963 960.879 268.34C960.877 268.181 960.825 267.991 960.462 267.792C960.234 267.667 959.993 267.604 959.735 267.604ZM950.654 278.469C950.497 278.469 950.342 278.411 950.22 278.301C950.011 278.11 949.95 277.807 950.069 277.551C950.254 277.154 954.636 267.822 958.715 266.484C959.564 266.206 960.359 266.265 961.083 266.659C961.969 267.146 962.163 267.832 962.17 268.322C962.216 271.643 952.856 277.283 950.98 278.381C950.879 278.439 950.767 278.469 950.654 278.469Z" fill="#E6F4FF"/>
<path d="M848.353 272.447C847.104 272.447 845.975 271.677 845.53 270.483L843.028 263.756C842.904 263.422 843.074 263.051 843.409 262.926C843.741 262.804 844.114 262.971 844.239 263.307L846.741 270.033C847.019 270.778 847.755 271.236 848.557 271.144L864.639 269.271C865.155 269.211 865.612 268.924 865.892 268.485C866.172 268.046 866.239 267.51 866.075 267.015L864.149 261.216C864.037 260.878 864.22 260.513 864.559 260.4C864.895 260.287 865.262 260.47 865.374 260.81L867.3 266.608C867.587 267.474 867.471 268.41 866.98 269.179C866.491 269.947 865.692 270.448 864.787 270.554L848.705 272.427C848.587 272.44 848.47 272.447 848.353 272.447Z" fill="#F7B369"/>
<path d="M929.705 327.419L922.277 327.445C921.312 327.448 920.525 326.668 920.522 325.702L920.383 285.203C920.38 284.237 921.16 283.452 922.126 283.448L929.554 283.423C930.52 283.42 931.306 284.2 931.309 285.166L931.447 325.664C931.451 326.631 930.671 327.416 929.705 327.419Z" fill="#E6F4FF"/>
<path d="M64.046 150.597C64.046 150.597 50.498 147.463 40.989 159.371C31.481 171.278 30.953 233.988 30.953 233.988L70.022 215.387L70.293 181.295L64.046 150.597Z" fill="black"/>
<path d="M148.825 240.248L156.587 207.282L186.542 209.8C186.542 209.8 204.909 286.039 176.55 299.104C150.354 311.171 129.201 286.5 129.201 286.5L148.825 240.248Z" fill="#CC7562"/>
<path d="M17.57 268.869C17.57 268.869 27.185 209.95 55.694 202.904C84.204 195.859 96.051 202.126 112.009 208.929C127.435 215.506 148.825 240.248 148.825 240.248L136.533 294.952L120.696 291.978L120.957 312.877L36.991 315.116L26.332 271.312L17.57 268.869Z" fill="#6876AA"/>
<path d="M71.576 185.146L71.462 203.363C71.462 203.363 74.715 208.62 85.366 209.553C93.301 210.247 96.101 208.47 96.101 208.47L95.052 199.237L94.017 190.233L74.799 185.88L71.576 185.146Z" fill="#CC7562"/>
<path d="M74.799 185.88C74.842 186.378 75.028 186.966 75.318 187.642C79.338 196.767 90.469 198.798 95.052 199.237L94.017 190.233L74.799 185.88Z" fill="black"/>
<path d="M98.336 148.736C98.336 148.736 107.755 171.635 103.908 184.301C100.06 196.968 88.492 194.71 81.599 192.095C74.705 189.481 71.573 185.15 71.573 185.15C71.573 185.15 65.036 187.21 60.827 181.081C56.617 174.953 59.44 168.081 63.18 166.573C66.919 165.065 71.268 167.836 71.268 167.836L67.958 161.169C67.958 161.169 83.215 127.983 98.336 148.736Z" fill="#CC7562"/>
<path d="M96.684 177.47C96.613 177.47 96.542 177.459 96.472 177.435C96.128 177.318 95.944 176.944 96.062 176.601C97.479 172.442 94.468 167.806 94.438 167.759C94.238 167.457 94.321 167.049 94.624 166.849C94.926 166.649 95.334 166.731 95.534 167.034C95.673 167.245 98.934 172.249 97.306 177.025C97.212 177.298 96.957 177.47 96.684 177.47Z" fill="black"/>
<path d="M70.022 178.381C69.841 178.381 69.661 178.307 69.531 178.161L63.556 171.458C63.314 171.187 63.338 170.771 63.609 170.53C63.88 170.29 64.295 170.313 64.537 170.583L70.512 177.286C70.753 177.557 70.73 177.973 70.459 178.214C70.334 178.326 70.177 178.381 70.022 178.381Z" fill="black"/>
<path d="M63.549 176.446C63.222 176.446 62.939 176.202 62.897 175.869C62.854 175.509 63.11 175.181 63.47 175.137L67.75 174.612C68.109 174.564 68.438 174.824 68.482 175.185C68.526 175.545 68.27 175.873 67.91 175.917L63.63 176.441C63.603 176.445 63.576 176.446 63.549 176.446Z" fill="black"/>
<path d="M84.007 159.851C83.818 159.851 83.631 159.77 83.501 159.613C83.269 159.334 83.307 158.92 83.586 158.688C86.043 156.648 89.536 157.944 89.684 158.001C90.022 158.13 90.192 158.509 90.064 158.848C89.935 159.187 89.557 159.355 89.217 159.23C89.189 159.219 86.287 158.154 84.426 159.699C84.304 159.801 84.155 159.851 84.007 159.851Z" fill="black"/>
<path d="M101.59 159.272C101.386 159.272 101.185 159.178 101.057 159C100.932 158.831 99.789 157.393 97.676 158.471C97.354 158.637 96.957 158.508 96.792 158.185C96.627 157.861 96.755 157.466 97.079 157.3C99.618 156.004 101.49 157.343 102.125 158.234C102.335 158.529 102.266 158.94 101.971 159.15C101.855 159.233 101.722 159.272 101.59 159.272Z" fill="black"/>
<path d="M86.647 168.718C86.314 168.718 86.027 168.465 85.994 168.125L85.575 163.884C85.559 163.719 85.605 163.554 85.706 163.421L87.484 161.087C87.704 160.799 88.117 160.744 88.406 160.963C88.694 161.183 88.75 161.595 88.53 161.884L86.908 164.013L87.302 167.997C87.337 168.357 87.074 168.679 86.712 168.715C86.69 168.717 86.669 168.718 86.647 168.718Z" fill="black"/>
<path d="M99.221 168.067C98.893 168.067 98.608 167.822 98.569 167.487L98.068 163.255C98.05 163.102 98.087 162.947 98.171 162.818L99.695 160.489C99.895 160.186 100.303 160.101 100.605 160.299C100.909 160.498 100.994 160.905 100.795 161.209L99.402 163.338L99.875 167.333C99.917 167.693 99.659 168.02 99.299 168.063C99.272 168.066 99.247 168.067 99.221 168.067Z" fill="black"/>
<path d="M71.623 171.35C71.623 171.35 78.376 167.65 81.038 162.401C83.7 157.152 82.927 152.199 82.927 152.199C82.927 152.199 87.185 155.09 93.255 154.217C99.326 153.344 102.757 147.185 101.607 142.453C101.034 140.095 96.73 140.974 96.73 140.974C96.73 140.974 92.273 135.209 84.584 136.209C76.895 137.209 74.932 141.726 74.932 141.726C74.932 141.726 68.757 141.615 64.128 144.954C59.499 148.293 59.467 155.26 59.467 155.26C59.467 155.26 55.814 157.175 55.697 160.853C55.58 164.529 59.198 171.499 59.198 171.499C59.198 171.499 64.532 163.805 71.623 171.35Z" fill="black"/>
<path d="M120.305 295.241C119.942 295.241 119.648 294.947 119.648 294.584V275.265C119.648 275.193 119.66 275.122 119.683 275.055C119.71 274.972 122.47 266.694 123.5 254.799C124.519 243.038 115.898 229.129 115.812 228.989C115.619 228.683 115.711 228.276 116.019 228.084C116.326 227.89 116.733 227.984 116.925 228.291C117.291 228.874 125.867 242.708 124.81 254.912C123.828 266.246 121.289 274.361 120.962 275.369V294.584C120.962 294.947 120.668 295.241 120.305 295.241Z" fill="#465884"/>
<path d="M70.236 264.009C69.439 264.8 69.237 270.604 69.493 276.664C70.939 271.678 72.018 265.622 70.356 264.104C70.304 264.056 70.264 264.026 70.236 264.009ZM69.037 280.881C69.007 280.881 68.977 280.879 68.947 280.875C68.639 280.832 68.403 280.58 68.381 280.271C68.031 275.376 67.46 263.874 69.707 262.786C69.988 262.651 70.564 262.514 71.243 263.133C74.623 266.223 70.173 278.999 69.655 280.445C69.56 280.709 69.311 280.881 69.037 280.881Z" fill="#465884"/>
<path d="M155.453 195.188C155.453 195.188 158.138 183.277 164.502 177.85C170.866 172.423 178.395 168.926 177.078 173.755C175.76 178.584 171.354 186.476 171.354 186.476L182.899 183.401C182.899 183.401 190.428 179.904 195.897 178.448C201.366 176.991 203.088 181.011 203.088 181.011C203.088 181.011 208.557 179.555 210.937 181.161C213.316 182.766 211.628 186.202 211.628 186.202C211.628 186.202 219.477 186.351 216.522 192.362C213.567 198.374 198.038 208.48 190.509 211.978C182.98 215.476 166.016 217.753 166.016 217.753C166.016 217.753 150.782 221.084 155.453 195.188Z" fill="#CC7562"/>
<path d="M197.673 197.809C197.568 197.809 197.461 197.784 197.363 197.73L177.336 186.991C177.016 186.82 176.896 186.421 177.067 186.102C177.239 185.781 177.639 185.661 177.957 185.833L197.984 196.572C198.304 196.744 198.424 197.142 198.252 197.462C198.134 197.683 197.907 197.809 197.673 197.809Z" fill="black"/>
<path d="M158.695 204.283C158.403 204.283 158.136 204.087 158.059 203.791C157.968 203.439 158.179 203.081 158.53 202.99C164.599 201.414 168.496 198.887 170.112 195.479C171.814 191.894 170.303 188.522 170.288 188.489C170.137 188.16 170.28 187.77 170.609 187.617C170.936 187.465 171.327 187.607 171.48 187.936C171.554 188.094 173.267 191.87 171.311 196.021C169.525 199.808 165.336 202.581 158.86 204.262C158.805 204.276 158.749 204.283 158.695 204.283Z" fill="black"/>
<path d="M106.495 293.955C106.495 293.955 118.994 291.756 126.89 291.43C134.785 291.104 146.748 289.758 151.021 286.919C155.294 284.08 156.463 285.88 156.166 289.044C155.87 292.208 150.932 295.527 150.932 295.527C150.932 295.527 164.409 316.337 162.823 318.962C161.237 321.586 152.352 316.602 152.352 316.602C152.352 316.602 151.663 318.621 150.024 319.48C148.386 320.339 145.55 320.12 145.55 320.12C145.55 320.12 145.622 322.475 142.797 324.036C139.972 325.599 137.448 324.679 137.448 324.679C137.448 324.679 137.023 329.081 134.758 328.918C132.494 328.754 122.687 329.14 122.27 326.31C121.853 323.479 129.448 321.473 129.448 321.473L128.886 316.611C128.886 316.611 123.231 325.089 114.699 323.552C106.166 322.015 103.505 311.771 103.505 311.771L106.495 293.955Z" fill="#CC7562"/>
<path d="M152.352 317.259C152.273 317.259 152.194 317.245 152.117 317.216C151.778 317.086 151.608 316.706 151.737 316.367C154.844 308.222 143.821 298.236 143.709 298.137C143.439 297.895 143.416 297.479 143.658 297.209C143.899 296.938 144.315 296.915 144.585 297.156C145.069 297.589 156.394 307.846 152.966 316.836C152.866 317.098 152.616 317.259 152.352 317.259Z" fill="black"/>
<path d="M145.55 320.777C145.477 320.777 145.402 320.765 145.33 320.739C144.988 320.617 144.81 320.241 144.931 319.899C146.74 314.83 142.264 309.499 142.219 309.445C141.983 309.17 142.016 308.755 142.291 308.52C142.568 308.282 142.981 308.315 143.217 308.591C143.423 308.832 148.236 314.549 146.169 320.341C146.073 320.609 145.82 320.777 145.55 320.777Z" fill="black"/>
<path d="M137.448 325.336C137.327 325.336 137.206 325.303 137.096 325.233C136.79 325.039 136.699 324.633 136.894 324.326C139.366 320.43 136.85 314.617 136.825 314.56C136.678 314.228 136.829 313.839 137.161 313.692C137.493 313.546 137.88 313.697 138.027 314.028C138.144 314.293 140.848 320.548 138.003 325.031C137.878 325.229 137.665 325.336 137.448 325.336Z" fill="black"/>
<path d="M19.933 269.528C19.933 269.528 14.168 294.584 20.647 307.677C29.885 326.343 107.219 316.412 107.219 316.412L112.452 294.584L68.893 281.098L69.036 280.224C69.036 280.224 51.872 275.702 19.933 269.528Z" fill="#CC7562"/>
<path d="M86.961 179.815C87.114 180.916 87.57 182.534 88.929 183.02C90.272 183.498 91.568 182.95 92.366 182.458L86.961 179.815ZM90.022 184.523C89.531 184.523 89.016 184.446 88.487 184.257C85.477 183.182 85.567 178.889 85.572 178.707C85.579 178.483 85.698 178.278 85.889 178.163C86.08 178.047 86.316 178.036 86.518 178.135L93.909 181.75C94.102 181.844 94.237 182.027 94.27 182.239C94.303 182.451 94.23 182.666 94.076 182.814C93.988 182.898 92.264 184.523 90.022 184.523Z" fill="black"/>
<path d="M87.691 210.465C82.396 210.465 75.514 208.942 69.546 202.699C69.295 202.437 69.305 202.021 69.567 201.771C69.83 201.519 70.245 201.528 70.497 201.791C81.47 213.271 95.72 207.914 95.862 207.857C96.198 207.726 96.581 207.894 96.713 208.231C96.845 208.569 96.678 208.95 96.34 209.082C96.267 209.11 92.684 210.465 87.691 210.465Z" fill="#465884"/>
<path d="M460.65 305.116L460.849 311.734C460.849 311.734 439.162 318.345 411.417 318.615C389.086 318.847 365.329 306.563 365.329 306.563L366.497 299.164L368.82 284.498L369.989 277.098L370.783 272.061L332.495 265.953C332.495 265.953 346.887 221.508 377.146 208.058C403.145 196.512 435.588 203.124 450.922 210.353C467.488 218.161 460.42 297.284 460.42 297.284L460.65 305.116Z" fill="#F7B369"/>
<path d="M460.65 305.116C438.43 312.704 412.392 312.522 392.69 310.649C380.076 309.45 370.062 307.553 365.329 306.563L366.497 299.164C377.567 301.461 425.564 310.206 460.42 297.284L460.65 305.116Z" fill="#6876AA"/>
<path d="M459.902 280.023L459.957 281.813C435.261 289.27 406.86 288.698 386.877 286.799C379.507 286.099 373.294 285.223 368.82 284.498L369.989 277.098C386.649 279.731 425.607 284.374 459.705 274.631L459.902 280.023Z" fill="#6876AA"/>
<path d="M378.75 263.275L380.264 255.764C380.78 255.793 429.719 257.97 458.243 250.812L458.801 258.117C429.171 265.552 380.903 263.396 378.75 263.275Z" fill="#6876AA"/>
<path d="M376.506 272.894C376.451 272.894 376.395 272.887 376.338 272.872C375.987 272.779 375.778 272.42 375.871 272.068L380.358 255.067C380.45 254.716 380.811 254.507 381.161 254.6C381.512 254.692 381.721 255.052 381.628 255.403L377.141 272.404C377.063 272.699 376.797 272.894 376.506 272.894Z" fill="white"/>
<path d="M339.538 267.118C339.538 267.118 330.689 293.19 343.349 307.812C359.235 326.157 430.918 320.728 430.918 320.728L431.912 296.53L376.428 272.236L339.538 267.118Z" fill="#B26756"/>
<path d="M410.387 188.943L407.891 206.117C407.891 206.117 410.271 211.505 420.199 213.781C427.595 215.478 430.528 211.84 430.528 211.84L430.691 205.318L430.895 196.687L413.333 190.059L410.387 188.943Z" fill="#B26756"/>
<path d="M413.333 190.059C413.309 190.534 413.406 191.114 413.591 191.789C416.188 200.926 426.424 204.303 430.691 205.318L430.895 196.687L413.333 190.059Z" fill="black"/>
<path d="M440.415 158.098C440.415 158.098 446.298 180.94 441.006 192.387C435.713 203.834 425.095 200.187 418.934 196.815C412.771 193.444 410.384 188.947 410.384 188.947C410.384 188.947 403.946 190.033 400.778 183.698C397.61 177.363 401.175 171.249 404.902 170.317C408.628 169.385 412.368 172.57 412.368 172.57L410.119 165.845C410.119 165.845 428.868 136.532 440.415 158.098Z" fill="#B26756"/>
<path d="M435.171 185.031C435.073 185.031 434.971 185.009 434.876 184.961C434.552 184.798 434.422 184.403 434.585 184.079C436.467 180.342 434.236 175.598 434.212 175.551C434.056 175.224 434.194 174.831 434.521 174.674C434.845 174.517 435.24 174.655 435.398 174.982C435.502 175.2 437.928 180.362 435.759 184.669C435.644 184.899 435.413 185.031 435.171 185.031Z" fill="black"/>
<path d="M409.896 182.482C409.655 182.482 409.419 182.366 409.275 182.151L404.516 175.042C404.287 174.7 404.378 174.236 404.721 174.007C405.063 173.778 405.527 173.869 405.756 174.212L410.515 181.321C410.745 181.663 410.653 182.126 410.31 182.356C410.183 182.441 410.039 182.482 409.896 182.482Z" fill="black"/>
<path d="M408.149 179.874C408.137 179.874 404.03 179.808 404.03 179.808C403.618 179.801 403.289 179.461 403.296 179.049C403.302 178.638 403.599 178.309 404.054 178.315L408.161 178.382C408.573 178.389 408.902 178.728 408.895 179.14C408.889 179.548 408.556 179.874 408.149 179.874Z" fill="black"/>
<path d="M412.368 172.57C412.368 172.57 414.325 174.384 416.344 172.151C418.363 169.918 416.108 161.938 416.108 161.938C416.108 161.938 422.456 164.545 426.902 163.048C431.349 161.551 434.36 155.882 434.36 155.882C434.36 155.882 436.312 162.643 445.783 161.405C455.254 160.167 459.033 148.193 449.837 144.074C440.64 139.955 434.67 143.326 434.67 143.326C434.67 143.326 434.947 134.222 422.317 136.617C410.811 138.8 406.697 152.064 406.697 152.064C406.697 152.064 400.14 151.273 397.7 158.139C395.259 165.005 402.677 171.517 402.677 171.517C402.677 171.517 407.84 169.55 412.368 172.57Z" fill="black"/>
<path d="M424.429 167.221C424.292 167.221 424.154 167.179 424.036 167.09C423.746 166.873 423.686 166.461 423.903 166.17C425.805 163.625 429.219 164.949 429.365 165.006C429.701 165.14 429.865 165.521 429.731 165.858C429.598 166.195 429.215 166.36 428.879 166.227C428.772 166.186 426.252 165.22 424.956 166.958C424.827 167.13 424.629 167.221 424.429 167.221Z" fill="black"/>
<path d="M441.261 167.526C441.071 167.526 440.881 167.444 440.751 167.284C440.74 167.27 439.584 165.872 438.309 165.819C437.784 165.803 437.292 166.021 436.83 166.501C436.578 166.763 436.162 166.771 435.9 166.519C435.638 166.267 435.63 165.851 435.882 165.589C436.615 164.83 437.48 164.469 438.37 164.506C440.241 164.587 441.71 166.381 441.772 166.457C442 166.739 441.957 167.151 441.675 167.38C441.553 167.479 441.407 167.526 441.261 167.526Z" fill="black"/>
<path d="M427.339 188.031C426.927 188.031 426.88 188.198 426.863 188.261C426.771 188.589 427.036 189.301 427.751 189.732C428.299 190.063 429.731 190.566 431.954 188.848C430.906 188.499 429.163 188.031 427.339 188.031ZM429.025 191.382C428.118 191.382 427.452 191.086 427.072 190.858C425.951 190.182 425.317 188.915 425.596 187.909C425.804 187.162 426.456 186.716 427.339 186.716C430.522 186.716 433.371 187.968 433.491 188.022C433.691 188.111 433.833 188.295 433.871 188.511C433.908 188.728 433.834 188.949 433.674 189.1C431.786 190.885 430.203 191.382 429.025 191.382Z" fill="black"/>
<path d="M423.175 214.014C411.946 214.014 407.38 206.544 407.325 206.451C407.141 206.139 407.244 205.737 407.556 205.553C407.866 205.367 408.27 205.47 408.456 205.782C408.712 206.213 414.942 216.291 431.656 211.38C432.004 211.28 432.371 211.479 432.472 211.825C432.574 212.174 432.375 212.539 432.027 212.642C428.706 213.616 425.763 214.014 423.175 214.014Z" fill="white"/>
<path d="M460.463 309.854C460.463 309.854 479.308 321.612 493.083 306.776C511.762 286.663 463.329 208.501 463.329 208.501L449.397 224.523L460.463 309.854Z" fill="#B26756"/>
<path d="M429.591 297.581C429.591 297.581 442.45 290.911 462.301 290.419C467.526 290.289 477.479 298.195 478.353 299.48C479.886 301.734 476.595 303.449 476.595 303.449C476.595 303.449 482.375 305.297 482.337 307.889C482.299 310.48 475.842 311.628 475.842 311.628C475.842 311.628 480.288 314.168 476.1 316.499C471.911 318.831 455.578 315.378 455.578 315.378C455.578 315.378 435.768 329.417 424.079 315.926C413.699 303.947 429.591 297.581 429.591 297.581Z" fill="#B26756"/>
<path d="M476.593 304.106C476.494 304.106 476.392 304.084 476.296 304.035L462.493 297.015C462.169 296.85 462.041 296.454 462.205 296.131C462.369 295.808 462.762 295.677 463.088 295.843L476.892 302.863C477.215 303.028 477.344 303.424 477.18 303.747C477.064 303.976 476.833 304.106 476.593 304.106Z" fill="black"/>
<path d="M475.841 312.285C475.749 312.285 475.654 312.266 475.565 312.224L463.344 306.55C463.015 306.397 462.872 306.007 463.025 305.678C463.178 305.348 463.571 305.205 463.897 305.358L476.118 311.032C476.447 311.185 476.59 311.575 476.437 311.904C476.326 312.145 476.088 312.285 475.841 312.285Z" fill="black"/>
<path d="M427.339 175.747C426.977 175.747 426.682 175.452 426.682 175.089V171.334C426.682 170.972 426.977 170.677 427.339 170.677C427.702 170.677 427.997 170.972 427.997 171.334V175.089C427.997 175.452 427.702 175.747 427.339 175.747Z" fill="black"/>
<path d="M438.808 175.747C438.445 175.747 438.151 175.452 438.151 175.089V171.334C438.151 170.972 438.445 170.677 438.808 170.677C439.171 170.677 439.465 170.972 439.465 171.334V175.089C439.465 175.452 439.171 175.747 438.808 175.747Z" fill="black"/>
<path d="M461.802 228.972L442.388 226.93C442.388 226.93 447.814 233.463 438.575 233.099C429.336 232.734 427.066 224.546 427.066 224.546L428.049 205.271C428.049 205.271 409.521 199.469 412.92 197.016C418.168 193.228 442.117 196.665 442.117 196.665C442.117 196.665 435.742 188.055 441.364 187.308C448.326 186.381 463.329 208.501 463.329 208.501L461.802 228.972Z" fill="#B26756"/>
<path d="M436.201 227.644C435.844 227.644 435.553 227.356 435.55 226.999C435.546 226.64 435.834 226.345 436.194 226.342L439.921 226.304L436.338 224.313C436.024 224.138 435.912 223.741 436.085 223.427C436.26 223.113 436.653 222.997 436.971 223.174L442.704 226.36C442.961 226.504 443.09 226.804 443.018 227.09C442.946 227.376 442.689 227.577 442.394 227.58L436.208 227.643C436.205 227.643 436.203 227.644 436.201 227.644Z" fill="black"/>
<path d="M432.405 206.57C432.373 206.57 432.34 206.567 432.308 206.563L427.953 205.915C426.636 205.598 415.546 202.798 413.793 198.81C413.318 197.731 413.595 196.962 413.911 196.506C415.435 194.303 421.463 194.564 422.147 194.604L440.47 195.896C439.25 194.406 437.704 191.727 438.691 188.475C439.035 187.345 439.776 186.917 440.337 186.756C443.547 185.845 449.941 191.348 450.659 191.979C450.928 192.216 450.956 192.627 450.718 192.897C450.481 193.167 450.071 193.195 449.799 192.957C447.292 190.755 442.606 187.461 440.694 188.009C440.458 188.076 440.125 188.236 439.937 188.853C438.696 192.939 442.492 196.13 442.53 196.162C442.749 196.342 442.826 196.644 442.72 196.906C442.616 197.168 442.369 197.333 442.071 197.314L422.066 195.904C419.781 195.778 415.82 196.033 414.981 197.247C414.862 197.419 414.733 197.714 414.984 198.286C416.251 201.167 424.956 203.849 428.203 204.639L432.5 205.275C432.855 205.328 433.1 205.659 433.047 206.015C433 206.338 432.722 206.57 432.405 206.57Z" fill="black"/>
</g>
<defs>
<clipPath id="clip0_297_4934">
<rect width="1012" height="329" fill="white"/>
</clipPath>
</defs>
</svg>
